PathFileType	4	(X/Y/Z)	Patient4_TMGait_0pt6_01_right_28.trc.trc
DataRate	CameraRate	NumFrames	NumMarkers	Units	OrigDataRate	OrigDataStartFrame	OrigNumFrames
82.352941176470	82.352941176470	4	33	mm	82.352941176470	36	       141
Frame#	Time	Sacral			L.Shoulder			Chest			R.Shoulder			Neck			R.ASIS			L.ASIS			R.Thigh.Superior			R.Thigh.Lateral			R.Thigh.Inferior			R.Patella			L.Thigh.Superior			L.Thigh.Lateral			L.Thigh.Inferior			L.Patella			L.Shank.Superior			L.Shank.Lateral			L.Shank.Inferior			R.Shank.Superior			R.Shank.Lateral			R.Shank.Inferior			R.Heel			R.Midfoot.Superior			R.Midfoot.Lateral			R.Toe			L.Heel			L.Midfoot.Lateral			L.Midfoot.Superior			L.Toe			L.Elbow			L.Wrist			R.Elbow			R.Wrist			
		X1	Y1	Z1	X2	Y2	Z2	X3	Y3	Z3	X4	Y4	Z4	X5	Y5	Z5	X6	Y6	Z6	X7	Y7	Z7	X8	Y8	Z8	X9	Y9	Z9	X10	Y10	Z10	X11	Y11	Z11	X12	Y12	Z12	X13	Y13	Z13	X14	Y14	Z14	X15	Y15	Z15	X16	Y16	Z16	X17	Y17	Z17	X18	Y18	Z18	X19	Y19	Z19	X20	Y20	Z20	X21	Y21	Z21	X22	Y22	Z22	X23	Y23	Z23	X24	Y24	Z24	X25	Y25	Z25	X26	Y26	Z26	X27	Y27	Z27	X28	Y28	Z28	X29	Y29	Z29	X30	Y30	Z30	X31	Y31	Z31	X32	Y32	Z32	X33	Y33	Z33	

36	33.895000000000	753.359523260406	1001.272640863682	494.773665660065	916.000008131062	1438.379804816854	325.552416777503	1019.023425283355	1368.002736664001	485.646414213490	930.218674670026	1431.095377314180	659.514139040366	892.224370616669	1493.730863705080	480.885713188815	981.673058181488	944.286264896525	614.792948365146	967.146363101941	959.582116967044	340.212046387093	1035.454871942334	748.869076471730	586.543419912276	959.125028617253	635.411847885969	643.284578470226	1042.247608264387	588.523552522379	565.658015886546	1047.135585001134	500.211603086061	571.188801934529	1011.478416989120	741.432605911150	364.046062782946	927.166207033243	625.024943226609	298.742465511145	1015.682141934946	542.226349005864	354.791730692400	1008.481098005191	455.449987106973	352.357259717403	939.043060581530	396.982025332600	351.669090260012	797.079484020116	353.978072937387	307.235376683823	783.226629797342	229.493647610738	371.612589275435	1024.745515376991	410.566743058832	576.348237019116	957.253524250556	301.086364739337	632.405103758785	1010.505636712691	210.935223913870	569.702698167614	888.913553393046	41.553512413081	530.617065371314	1059.140412763815	99.456313838910	568.692287097225	971.957676938704	36.375160256542	606.026117089992	1179.321953380985	49.335856291491	594.972082844855	591.654893846514	162.272171434066	416.703089378310	649.708778338891	117.424044952099	336.952797519821	754.172785913986	132.220712891940	355.661915183022	837.014466553289	33.771906022659	330.483539503725	969.291579015373	1095.409628249265	190.658847086670	1189.173542312733	953.156385241609	190.795623820483	871.238470241291	1080.959112988497	760.808402230927	924.529593669708	825.376405856227	757.407267463311	
37	33.907142857143	753.254177741220	1001.601076525126	497.923962653059	913.398456949091	1439.070550922653	327.519017272514	1018.293635325935	1368.643207957774	486.384706466535	931.427336719224	1431.326900049300	661.354426645668	891.550695336475	1494.212919087661	483.286327792126	982.422179084354	945.149115521114	615.838115244455	965.796725549075	959.830066975162	341.008340460310	1033.829644835771	748.311293557660	588.984760804461	955.861312202606	635.468090426324	645.035919375959	1038.726028415768	587.855624516669	567.617830222832	1042.507635136053	499.691965084716	572.756722585504	1015.598136674152	744.713174273965	364.800363115764	935.459956987615	626.334276869927	298.586780175482	1027.028172101220	545.665359348403	353.634667278119	1021.432463306073	457.899267933561	350.706784953958	950.654394304667	399.151239456597	350.570541583982	806.970338477873	360.106945435430	307.463529204111	790.422504011588	235.858762340723	371.586548666809	1019.595359551726	410.192982504459	577.644240209776	951.384118891082	301.015983791924	633.378956857490	1004.088177539349	210.686779945955	570.419652916383	881.633172114050	41.586561465023	530.840026677080	1051.980016655389	99.434132264381	569.046333472958	964.669402758643	36.319652823905	606.248161073203	1172.047140326847	49.209697551533	595.179855846028	597.114928950951	175.218458876580	418.334289959785	652.818590502675	128.423240276293	337.769406992884	758.312260886399	138.839500219017	355.567370790907	836.763977063801	34.837735241991	328.930476599917	962.061206291780	1094.118143837475	194.755438020940	1175.028159575778	941.209666497433	194.238038005521	881.844196877619	1079.455532974732	763.767466943930	945.680199188028	826.216068612675	759.137099535405	
38	33.919285714286	753.046680456674	1001.893360669287	500.936940164516	910.645599001046	1439.652863453264	329.311764764486	1017.458044717378	1369.234760712974	486.917866504910	932.587989162690	1431.498537853274	663.033445383589	890.859447509478	1494.628152321427	485.547426011142	983.003602705663	945.906250456139	616.803254890228	964.408981482171	960.015782787382	341.703935415677	1032.017922343131	747.691348529051	591.266724734834	952.496803632954	635.469404829055	646.651844157060	1035.008214159323	587.169378409748	569.366258778809	1037.712038994308	499.169033294490	574.142679730374	1019.412260552439	748.173107257535	365.324504286289	943.176343536365	628.091600404424	298.258388726399	1037.660973029946	549.637831130210	352.282093376261	1033.868720758083	461.044970570292	348.916157824149	962.169400228136	401.822588350506	349.283995607541	817.071213452904	365.852644721335	307.618576220389	798.666535107256	241.744976988949	371.467053855992	1014.322563824238	409.797154133222	578.766842563021	945.446285248662	300.917308080254	634.207597605087	997.597800246969	210.409866295979	571.021131041599	874.275455957363	41.616215896840	531.043464338365	1044.758040482986	99.358697687399	569.325312343660	957.308336083694	36.263462040282	606.439229398762	1164.713563066874	49.006778442151	595.352995211915	604.314092565848	186.029840728019	420.076288757736	657.921512923060	138.042156665415	338.564563737985	764.175537555751	145.041658010529	355.355524137138	839.130747883028	36.456220384485	326.958473919230	954.590460224695	1092.761383323209	198.700654999932	1159.881308904607	929.356762116497	197.713431315473	892.659057434691	1078.182890392729	766.559420724698	967.178914323934	827.773398385765	760.713851620604	
39	33.931428571429	752.736849283906	1002.192921840760	503.788297144783	907.822529813305	1440.154723412308	330.926182263634	1016.550491691701	1369.799176749326	487.271877276866	933.701290238775	1431.673358086128	664.538154435059	890.162512990864	1495.011626594732	487.633623871557	983.409723485426	946.557822662450	617.721769379738	962.998078452099	960.219426113187	342.370805180223	1030.059226382122	747.052235972174	593.261959221024	949.114842116198	635.457214041607	648.102147066954	1031.133342735371	586.491157536032	570.842939984522	1032.791652122956	498.663552382328	575.308673810167	1022.868376828358	751.807003977157	365.686511216763	950.248852824338	630.286381568838	297.807004295050	1047.494568419859	554.109117662812	350.797642937754	1045.680954867766	464.857621094309	347.014104352163	973.512420561570	404.950650867315	347.832658308556	827.326670095209	370.993648815209	307.661012228195	808.026510846467	246.872069313740	371.184970832500	1008.969552341253	409.398439291950	579.692044323603	939.488766180069	300.814619028897	634.883757507879	991.071710569176	210.125533935220	571.498029665886	866.870897956050	41.649253260367	531.234114604603	1037.498003936312	99.249320059504	569.538354654633	949.905357141245	36.216031696279	606.604914548799	1157.349365357989	48.757253551747	595.500605885218	613.283515494750	194.181068265068	421.749772150564	665.173953056025	145.738029040580	339.218274792388	771.950307203832	150.447114481596	354.943061704502	844.487507527786	38.498313801277	324.614117294868	946.883632233553	1091.379974267920	202.513429841011	1143.727122879121	917.711950688940	201.194885784097	903.656425062358	1077.212571052895	769.124784029759	988.928398121250	830.151467260178	762.082769738735	
